<svg xmlns="http://www.w3.org/2000/svg" xmlns:xlink="http://www.w3.org/1999/xlink" width="32" height="32"><symbol id="icon-jekyll" viewBox="0 0 32 32"><g id="icon-jekyll" stroke="none" stroke-width="1" fill="none" fill-rule="evenodd"><path d="M8.34 26.181a3.524 3.524 0 1 0 6.578 2.526S23.3 6.639 23.561 6.13c.664-.369 1.08-.554 1.219-.877.392-.97-.914-2.402-3.4-3.407-2.485-1.004-4.694-1.188-4.782 0-.068.91.277 1.095.434 1.757.076.099-8.693 22.578-8.693 22.578z" id="base" fill="#D8D8D8"/><path d="M20.484 4.009c1.437.58 2.727.742 2.881.36.155-.382-.885-1.162-2.322-1.743-1.437-.58-2.727-.742-2.882-.36-.154.382.886 1.162 2.323 1.743z" id="black-circle" fill-opacity=".2" fill="#333"/><path d="M14.407 12.631c-1.801.908-2.328 2.206-2.328 4.18v11.011a2.464 2.464 0 0 0 2.472 2.468 2.476 2.476 0 0 0 2.472-2.477V9.06c-.442 1.17-.815 2.664-2.616 3.572z" id="liquid" fill="#E00B00" transform="rotate(21 14.551 19.674)"/><g id="bubbles" transform="translate(11.744 16.44)" fill="#FFF" fill-opacity=".5"><path d="M1.71 5.547a.924.924 0 1 0 0-1.849.924.924 0 0 0 0 1.849z" id="Oval-2"/><circle id="Oval-2" cx="4.276" cy="2.381" r="1"/><circle id="Oval-2" cx=".416" cy="6.009" r="1"/><circle id="Oval-2" cx="2.565" cy=".347" r="1"/><circle id="Oval-2" cx="2.057" cy="8.898" r="1"/></g></g></symbol><use xlink:href="#icon-jekyll" width="32" height="32"/></svg>